<svg width="100" height="100" viewBox="0 0 100 100" fill="none" xmlns="http://www.w3.org/2000/svg">
<g clip-path="url(#clip0_125_990)">
<rect width="100" height="100" rx="50" fill="black"/>
<circle cx="50" cy="50" r="41.5" stroke="url(#paint0_angular_125_990)"/>
<path d="M9.47068 59.7722L3.60687 37.8882L12.9416 35.3869C17.9572 34.0761 21.1334 35.5441 22.0196 38.8514C22.6739 41.2933 21.4625 43.5725 19.0913 44.7379L19.1576 44.9852C21.9643 44.3325 24.79 45.7287 25.6182 48.8197C26.5789 52.4052 24.3691 55.7802 19.609 57.0556L9.47068 59.7722ZM13.9775 53.5952L16.883 52.8167C18.9623 52.2927 19.767 51.2158 19.3611 49.7012C18.947 48.1557 17.5549 47.5349 15.6694 48.0401L12.7021 48.8352L13.9775 53.5952ZM11.7413 45.2496L14.2759 44.5705C15.9141 44.1315 16.8198 43.0606 16.478 41.6614C16.0744 40.2788 14.7773 39.765 13.2401 40.21L10.5818 40.9223L11.7413 45.2496ZM29.399 30.9772L35.2628 52.8612L29.5755 54.3851L23.7117 32.5011L29.399 30.9772ZM36.3465 47.734C35.4084 44.1093 37.7165 41.9669 40.9968 40.8561C42.1857 40.4712 44.1247 39.9186 44.7965 39.7054L44.4486 38.4072C44.161 37.4573 43.2866 37.1615 42.1965 37.4205C40.9993 37.7744 40.3591 38.476 40.5087 39.5292L35.1923 40.9537C34.6445 37.9201 36.3846 34.7704 41.1982 33.4475C45.7502 32.2609 49.2912 33.7305 50.136 36.8833L53.1341 48.0726L47.8177 49.4971L47.2048 47.2098L47.0812 47.2429C46.5724 49.3007 45.1722 50.5041 43.0002 51.053C39.8557 51.9287 37.247 50.9712 36.3465 47.734ZM41.6419 45.9838C41.9213 46.9028 42.804 47.2295 43.8775 46.9087C45.2767 46.5669 46.3265 45.2918 45.8897 43.7855L45.6495 42.8891C45.0705 43.0774 43.6034 43.5368 42.8473 43.8056C41.8913 44.1943 41.4244 45.0482 41.6419 45.9838ZM63.9199 45.5138C58.6344 46.9301 54.5932 44.3356 53.2432 39.2974C51.8932 34.2591 54.1349 30.0142 59.3813 28.5754C64.1496 27.3308 67.9076 29.2392 69.1041 33.4573L63.7876 34.8818C63.1693 33.1923 61.9852 32.4825 60.6644 32.8696C59.0179 33.2776 58.3088 34.9584 59.0376 37.6785C59.783 40.4604 61.2375 41.5614 62.8675 41.0915C64.174 40.7746 64.8754 39.5597 64.5662 37.7873L69.8826 36.3628C70.9411 40.684 68.7418 44.2218 63.9199 45.5138ZM74.159 42.439L68.2952 20.555L73.9825 19.0311L76.9476 30.0967L77.1948 30.0304L79.8459 23.3569L86.2751 21.6342L82.5402 30.3209L90.8502 37.9666L84.2973 39.7224L79.1917 34.7629L78.5792 36.1859L79.8463 40.9151L74.159 42.439Z" fill="#00FF90"/>
<path d="M25.7002 61.9683L31.3876 60.4444L35.4127 75.4665C36.533 79.7712 33.9341 83.5485 29.1122 84.8406C24.9703 85.9504 21.0071 84.7596 19.6819 79.814L25.4311 78.2735C25.9402 79.9261 26.9531 80.6154 28.2739 80.2284C29.6731 79.8866 30.1665 78.7605 29.7253 76.9904L25.7002 61.9683ZM38.2169 77.2329C37.2788 73.6081 39.587 71.4658 42.8672 70.3549C44.0562 69.9701 45.9952 69.4174 46.6669 69.2043L46.3191 67.9061C46.0314 66.9562 45.1571 66.6604 44.0669 66.9193C42.8697 67.2733 42.2295 67.9749 42.3792 69.028L37.0627 70.4526C36.5149 67.419 38.255 64.2693 43.0686 62.9463C47.6206 61.7598 51.1616 63.2294 52.0064 66.3821L55.0046 77.5714L49.6881 78.996L49.0752 76.7087L48.9516 76.7418C48.4429 78.7996 47.0426 80.003 44.8707 80.5518C41.7262 81.4275 39.1175 80.4701 38.2169 77.2329ZM43.5124 75.4827C43.7918 76.4017 44.6744 76.7284 45.7479 76.4076C47.1472 76.0658 48.1969 74.7906 47.7602 73.2843L47.52 72.388C46.941 72.5762 45.4739 73.0356 44.7177 73.3045C43.7617 73.6931 43.2948 74.5471 43.5124 75.4827ZM65.7904 75.0127C60.5048 76.4289 56.4636 73.8345 55.1136 68.7962C53.7636 63.7579 56.0053 59.5131 61.2517 58.0742C66.0201 56.8297 69.778 58.738 70.9745 62.9561L65.6581 64.3806C65.0397 62.6911 63.8557 61.9814 62.5348 62.3684C60.8884 62.7765 60.1792 64.4573 60.9081 67.1773C61.6535 69.9592 63.108 71.0603 64.7379 70.5904C66.0444 70.2734 66.7459 69.0585 66.4366 67.2861L71.7531 65.8616C72.8116 70.1829 70.6123 73.7207 65.7904 75.0127ZM76.0294 71.9378L70.1656 50.0538L75.853 48.5299L78.818 59.5955L79.0653 59.5293L81.7164 52.8557L88.1456 51.133L84.4106 59.8197L92.7206 67.4655L86.1678 69.2213L81.0622 64.2617L80.4496 65.6847L81.7168 70.4139L76.0294 71.9378Z" fill="#00FF90"/>
</g>
<defs>
<radialGradient id="paint0_angular_125_990" cx="0" cy="0" r="1" gradientUnits="userSpaceOnUse" gradientTransform="translate(50 50) rotate(-132.354) scale(52.8379 43.4082)">
<stop stop-color="#914EFF"/>
<stop offset="0.186245" stop-color="#FF81FD"/>
<stop offset="0.385157" stop-color="#FFD400"/>
<stop offset="0.6815" stop-color="#00FF90"/>
<stop offset="0.799844" stop-color="#00D3F5"/>
</radialGradient>
<clipPath id="clip0_125_990">
<rect width="100" height="100" rx="50" fill="white"/>
</clipPath>
</defs>
</svg>
