<svg width="100" height="100" viewBox="0 0 100 100" fill="none" xmlns="http://www.w3.org/2000/svg">
<rect width="100" height="100" rx="50" fill="black"/>
<circle cx="50" cy="50" r="41.5" stroke="url(#paint0_angular_125_987)"/>
<path d="M33.6724 40.1805C35.9935 48.8429 31.7099 55.0263 24.6992 56.9048C17.6151 58.803 10.8406 55.5433 8.56603 46.9077C6.21807 38.2918 10.465 32.1183 17.5589 30.2568C24.5597 28.3416 31.3611 31.5548 33.6724 40.1805ZM15.54 45.039C16.8284 49.8474 19.499 51.8857 23.1059 50.9585C26.6565 49.9678 27.9134 46.8772 26.625 42.0688C25.3464 37.2972 22.7027 35.2123 19.1522 36.2031C15.5452 37.1302 14.2615 40.2674 15.54 45.039ZM55.7938 20.3265L62.757 46.3138L57.031 47.8481L43.6572 36.4035L43.5104 36.4429L47.2674 50.4642L40.4403 52.2936L33.477 26.3063L39.2764 24.7523L52.5034 36.2363L52.7236 36.1773L48.9666 22.1559L55.7938 20.3265ZM66.2844 45.3686L59.3212 19.3814L77.8206 14.4245L79.3155 20.0037L67.6433 23.1312L68.9022 27.8295L79.6201 24.9576L81.0954 30.4634L70.3774 33.3353L71.6363 38.0335L83.3086 34.906L84.7839 40.4117L66.2844 45.3686Z" fill="#FFD400"/>
<path d="M30.9922 69.2138C30.1728 67.075 28.3405 66.0172 25.8862 66.71C22.659 67.5395 21.4798 70.4954 22.5886 74.6335C23.759 79.0014 26.2294 80.733 29.3581 79.9299C31.7139 79.2634 32.8902 77.6107 32.6642 75.4537L38.856 73.865C39.5924 77.9268 37.352 83.4902 30.6523 85.2854C24.3139 86.9838 18.3839 84.032 16.3487 76.3054C14.2479 68.5965 18.0478 63.0728 24.2636 61.4425C30.0678 59.8521 35.1426 61.977 37.1664 67.5594L30.9922 69.2138ZM41.961 76.7641C40.9642 72.9129 43.4166 70.6366 46.9019 69.4563C48.1651 69.0474 50.2253 68.4602 50.9391 68.2338L50.5695 66.8544C50.2638 65.8451 49.3348 65.5309 48.1766 65.806C46.9046 66.1821 46.2243 66.9275 46.3834 68.0465L40.7346 69.5601C40.1526 66.3369 42.0014 62.9903 47.1159 61.5847C51.9524 60.324 55.7147 61.8854 56.6123 65.2353L59.7978 77.1239L54.1491 78.6374L53.4979 76.2072L53.3665 76.2424C52.826 78.4288 51.3383 79.7074 49.0305 80.2905C45.6895 81.221 42.9178 80.2037 41.961 76.7641ZM47.5874 74.9045C47.8842 75.881 48.822 76.2281 49.9627 75.8873C51.4493 75.5241 52.5647 74.1693 52.1006 72.5688L51.8454 71.6164C51.2303 71.8165 49.6715 72.3046 48.868 72.5902C47.8523 73.0032 47.3562 73.9105 47.5874 74.9045ZM62.8937 76.2943L58.2297 58.8884L64.0755 57.322L64.9555 60.6061L65.1526 60.5533C65.1254 57.9559 66.3128 56.4761 68.2088 55.9329C68.7431 55.8249 69.2862 55.7498 69.8556 55.7732L71.246 60.9622C70.5692 60.9323 69.5159 61.0737 68.8591 61.2497C66.9871 61.7513 65.9357 63.4762 66.4725 65.4796L68.9365 74.6752L62.8937 76.2943ZM82.4511 71.3355C78.6984 72.3059 74.7624 70.2278 73.1432 64.1849C71.4713 57.9451 74.1083 54.3873 77.5807 53.4217C80.2497 52.7417 82.2309 53.8301 83.3869 55.3859L83.4526 55.3683L81.0766 46.5011L87.1852 44.8643L93.4155 68.1161L87.3726 69.7352L86.6158 66.9109L86.4845 66.9461C86.2195 68.8474 84.9383 70.6339 82.4511 71.3355ZM79.3831 62.513C80.0959 65.1731 81.5868 66.5336 83.4172 66.008C85.1994 65.5656 85.8432 63.6332 85.1632 60.9642C84.4264 58.3457 82.9114 57.0268 81.1468 57.5349C79.2989 57.9948 78.6791 59.8856 79.3831 62.513Z" fill="#FFD400"/>
<defs>
<radialGradient id="paint0_angular_125_987" cx="0" cy="0" r="1" gradientUnits="userSpaceOnUse" gradientTransform="translate(50 50) rotate(-132.354) scale(52.8379 43.4082)">
<stop stop-color="#914EFF"/>
<stop offset="0.186245" stop-color="#FF81FD"/>
<stop offset="0.385157" stop-color="#FFD400"/>
<stop offset="0.6815" stop-color="#00FF90"/>
<stop offset="0.799844" stop-color="#00D3F5"/>
</radialGradient>
</defs>
</svg>
