<svg width="100" height="100" viewBox="0 0 100 100" fill="none" xmlns="http://www.w3.org/2000/svg">
<g clip-path="url(#clip0_125_978)">
<rect width="100" height="100" rx="50" fill="black"/>
<circle cx="50" cy="50" r="41.5" stroke="url(#paint0_angular_125_978)"/>
<path d="M11.8651 45.8309C11.4361 44.5544 10.3948 44.0218 8.66387 44.4856C7.01407 44.9277 6.43071 45.7797 6.65006 46.7065C6.8839 47.6874 7.92135 47.9892 9.80784 47.8895L11.4635 47.7938C15.8136 47.5847 18.189 49.0933 18.9789 52.0413C19.979 55.7737 17.6846 58.6785 12.8632 59.9414C7.92105 61.2946 4.12283 59.9933 2.81502 55.3289L7.62919 54.0389C8.18138 55.7752 9.64484 56.3686 11.6535 55.8594C13.3772 55.3686 14.1083 54.419 13.8402 53.4183C13.5938 52.4987 12.6645 52.1679 10.3974 52.2536L8.38828 52.3282C4.81912 52.5308 2.28727 51.412 1.49011 48.437C0.526268 44.8399 3.06546 41.5506 7.56233 40.3746C12.1529 39.1156 15.6792 40.8086 16.7334 44.5265L11.8651 45.8309ZM22.609 57.0981L17.4781 37.9496L31.1093 34.2972L32.2108 38.4081L23.6102 40.7127L24.5378 44.1745L32.4352 42.0584L33.5223 46.1153L25.6248 48.2314L26.5525 51.6933L35.1531 49.3888L36.2401 53.4457L22.609 57.0981ZM38.7244 32.2567L46.3796 44.8153L46.5419 44.7718L46.8923 30.0681L52.5719 28.5463L51.374 49.3906L44.5043 51.2313L33.0447 33.7785L38.7244 32.2567ZM59.5858 47.1902L54.455 28.0417L68.0861 24.3892L69.1877 28.5002L60.587 30.8047L61.5147 34.2666L69.4121 32.1505L70.4991 36.2074L62.6017 38.3235L63.5293 41.7854L72.1299 39.4809L73.2169 43.5378L59.5858 47.1902ZM87.1687 19.2761L92.2995 38.4246L88.0804 39.5551L78.226 31.1223L78.1178 31.1513L80.8862 41.4828L75.8556 42.8307L70.7248 23.6822L74.998 22.5372L84.7442 30.999L84.9065 30.9555L82.1382 20.624L87.1687 19.2761Z" fill="#00D3F5"/>
<path d="M18.8602 85.1029L13.7293 65.9544L21.8431 63.7803C26.1507 62.6551 29.6538 64.5862 30.7409 68.6431C31.8279 72.7 29.6495 76.0375 25.2753 77.2385L22.3544 78.0212L23.8907 83.755L18.8602 85.1029ZM21.2963 74.0725L23.2436 73.5507C25.1368 73.0434 25.936 71.6988 25.494 70.049C25.0374 68.3451 23.6874 67.6343 21.7942 68.1415L19.8469 68.6633L21.2963 74.0725ZM42.706 79.0033C38.1082 80.2353 34.5451 77.9724 33.3638 73.5639C32.1826 69.1554 34.1441 65.4411 38.7347 64.1821C43.3938 62.9627 46.9497 65.1986 48.1309 69.607C49.3122 74.0155 47.3579 77.7568 42.706 79.0033ZM38.434 72.1474C39.05 74.4463 40.3068 75.6748 41.76 75.2565C43.1736 74.9067 43.6207 73.2215 43.0318 70.9154C42.396 68.6508 41.1735 67.442 39.7744 67.8459C38.3066 68.2102 37.8252 69.8755 38.434 72.1474ZM52.2198 76.1642L47.089 57.0157L52.0655 55.6822L54.6599 65.3647L54.8762 65.3067L57.1959 59.4673L62.8215 57.96L59.5534 65.5608L66.8246 72.2508L61.0909 73.7872L56.6235 69.4476L56.0875 70.6927L57.1963 74.8308L52.2198 76.1642ZM74.3476 70.5249C69.7769 71.7497 66.2447 69.7104 65.0055 65.0855C63.817 60.65 65.8398 56.9483 70.2681 55.7328C74.5216 54.622 78.0663 56.6 79.3253 61.1906L79.6442 62.3806L70.2322 64.9025L70.2902 65.1189C70.6815 66.5794 71.9107 67.3805 73.5137 66.98C74.5883 66.6631 75.3306 65.9714 75.4377 65.073L79.9814 63.8556C80.2773 66.907 78.2693 69.4741 74.3476 70.5249ZM69.493 62.1438L74.2531 60.8684C73.898 59.5431 72.6509 58.8917 71.3329 59.2738C69.9733 59.6091 69.1722 60.8384 69.493 62.1438ZM83.4124 67.8062L79.5716 53.4718L84.3857 52.1819L85.1104 54.8865L85.2727 54.843C85.2503 52.7039 86.2282 51.4853 87.7896 51.0379C88.2296 50.949 88.6769 50.8871 89.1458 50.9064L90.2908 55.1797C89.7335 55.1551 88.8661 55.2715 88.3252 55.4165C86.7835 55.8296 85.9177 57.2501 86.3598 58.8999L88.3889 66.4727L83.4124 67.8062Z" fill="#00D3F5"/>
</g>
<defs>
<radialGradient id="paint0_angular_125_978" cx="0" cy="0" r="1" gradientUnits="userSpaceOnUse" gradientTransform="translate(50 50) rotate(-132.354) scale(52.8379 43.4082)">
<stop stop-color="#914EFF"/>
<stop offset="0.186245" stop-color="#FF81FD"/>
<stop offset="0.385157" stop-color="#FFD400"/>
<stop offset="0.6815" stop-color="#00FF90"/>
<stop offset="0.799844" stop-color="#00D3F5"/>
</radialGradient>
<clipPath id="clip0_125_978">
<rect width="100" height="100" rx="50" fill="white"/>
</clipPath>
</defs>
</svg>
